<svg
    xmlns="http://www.w3.org/2000/svg"
    viewBox="0 0 512 512"
    version="1.1"
    xmlns:xlink="http://www.w3.org/1999/xlink"
>
    <circle cx="256" cy="256" r="256" fill="#E5E5E5" />
    <g transform="translate(76, 60)" fill="none" stroke-width="10">
        <g stroke="#002F5C">
            <!-- Neural Network -->
            <circle cx="256" cy="0" r="10" />
            <circle cx="226" cy="0" r="10" />
            <circle cx="286" cy="0" r="10" />
            <circle cx="246" cy="40" r="10" />
            <circle cx="226" cy="40" r="10" />
            <circle cx="276" cy="40" r="10" />
            <line x1="256" y1="10" x2="246" y2="30" />
            <line x1="226" y1="10" x2="246" y2="30" />
            <line x1="286" y1="10" x2="276" y2="30" />
            <line x1="276" y1="50" x2="256" y2="70" />
            <line x1="226" y1="50" x2="246" y2="70" />
        </g>

        <!-- Microscope -->
        <path
            d="M170 100 L190 200 Q150 220 110 200 L130 100 Z"
            fill="#7B3F00"
            stroke="#7B3F00"
        />
        <path d="M190 200 L250 230 Q240 240 230 220 Z" fill="#7B3F00" />
        <path
            d="M140 250 Q170 270 200 250 Q200 290 140 290 Z"
            fill="#7B3F00"
            stroke="#7B3F00"
        />
        <circle cx="200" cy="270" r="20" stroke="#7B3F00" />

        <!-- Bed -->
        <rect x="50" y="300" width="200" height="60" rx="10" ry="10" fill="#7B3F00" />
        <rect
            x="90"
            y="340"
            width="120"
            height="20"
            rx="10"
            ry="10"
            fill="#7B3F00"
        />

        <!-- Text -->
        <text
            x="100"
            y="400"
            font-family="Arial"
            font-size="24"
            fill="#002F5C"
        >
            McBeth Lab
        </text>
    </g>
</svg>
